<svg width="23" height="30" viewBox="0 0 23 30" fill="none" xmlns="http://www.w3.org/2000/svg">
<path d="M2.50998e-07 3.74991V29.0618C-0.000118861 29.2246 0.0421575 29.3847 0.122668 29.5261C0.203179 29.6676 0.319149 29.7857 0.459162 29.8688C0.599174 29.9519 0.758404 29.997 0.921176 29.9999C1.08395 30.0027 1.24465 29.9631 1.38747 29.8849L11.2497 24.5038L21.112 29.8849C21.2548 29.9631 21.4155 30.0027 21.5783 29.9999C21.7411 29.997 21.9003 29.9519 22.0403 29.8688C22.1803 29.7857 22.2963 29.6676 22.3768 29.5261C22.4573 29.3847 22.4996 29.2246 22.4995 29.0618V3.74991C22.4995 2.75538 22.1044 1.80157 21.4012 1.09832C20.6979 0.395079 19.7441 0 18.7496 0L3.74991 0C2.75538 0 1.80157 0.395079 1.09832 1.09832C0.395079 1.80157 2.50998e-07 2.75538 2.50998e-07 3.74991Z" fill="#00877F"/>
</svg>
