<svg width="76" height="24" viewBox="0 0 76 24" fill="none" xmlns="http://www.w3.org/2000/svg">
<path d="M1.92578 0.9375V18H0.484375V0.9375H1.92578ZM7.5625 7.94531V18H6.15625V5.32031H7.50391L7.5625 7.94531ZM7.30469 10.875L6.625 10.5234C6.67188 9.77344 6.8125 9.07031 7.04688 8.41406C7.28906 7.75781 7.625 7.17969 8.05469 6.67969C8.48438 6.17969 9 5.78906 9.60156 5.50781C10.2031 5.22656 10.8867 5.08594 11.6523 5.08594C12.2695 5.08594 12.8281 5.17188 13.3281 5.34375C13.8359 5.50781 14.2656 5.76953 14.6172 6.12891C14.9766 6.48047 15.2539 6.94141 15.4492 7.51172C15.6445 8.08203 15.7422 8.76562 15.7422 9.5625V18H14.3477V9.60938C14.3477 8.76562 14.2148 8.10547 13.9492 7.62891C13.6914 7.15234 13.3281 6.8125 12.8594 6.60938C12.3984 6.40625 11.8633 6.30469 11.2539 6.30469C10.5352 6.30469 9.92578 6.45312 9.42578 6.75C8.93359 7.03906 8.53125 7.41797 8.21875 7.88672C7.91406 8.34766 7.6875 8.84375 7.53906 9.375C7.39062 9.89844 7.3125 10.3984 7.30469 10.875ZM15.7305 9.77344L14.793 9.79688C14.832 9.17969 14.9727 8.58984 15.2148 8.02734C15.4648 7.46484 15.8047 6.96484 16.2344 6.52734C16.6641 6.08203 17.1758 5.73047 17.7695 5.47266C18.3711 5.21484 19.0469 5.08594 19.7969 5.08594C20.4531 5.08594 21.0391 5.17578 21.5547 5.35547C22.0703 5.52734 22.5039 5.80469 22.8555 6.1875C23.2148 6.5625 23.4883 7.04297 23.6758 7.62891C23.8633 8.21484 23.957 8.91797 23.957 9.73828V18H22.5508V9.72656C22.5508 8.82812 22.418 8.13281 22.1523 7.64062C21.8945 7.14062 21.5352 6.79297 21.0742 6.59766C20.6133 6.40234 20.0742 6.30469 19.457 6.30469C18.8477 6.3125 18.3125 6.42578 17.8516 6.64453C17.3906 6.85547 17.0039 7.13672 16.6914 7.48828C16.3867 7.83203 16.1523 8.20312 15.9883 8.60156C15.832 9 15.7461 9.39062 15.7305 9.77344ZM35.2305 15.7266V9.1875C35.2305 8.58594 35.1055 8.06641 34.8555 7.62891C34.6055 7.19141 34.2383 6.85547 33.7539 6.62109C33.2695 6.38672 32.6719 6.26953 31.9609 6.26953C31.3047 6.26953 30.7188 6.38672 30.2031 6.62109C29.6953 6.84766 29.293 7.15625 28.9961 7.54688C28.707 7.92969 28.5625 8.35547 28.5625 8.82422L27.1562 8.8125C27.1562 8.33594 27.2734 7.875 27.5078 7.42969C27.7422 6.98438 28.0742 6.58594 28.5039 6.23438C28.9336 5.88281 29.4453 5.60547 30.0391 5.40234C30.6406 5.19141 31.3008 5.08594 32.0195 5.08594C32.9258 5.08594 33.7227 5.23828 34.4102 5.54297C35.1055 5.84766 35.6484 6.30469 36.0391 6.91406C36.4297 7.52344 36.625 8.28906 36.625 9.21094V15.3398C36.625 15.7773 36.6562 16.2305 36.7188 16.6992C36.7891 17.168 36.8867 17.5547 37.0117 17.8594V18H35.5234C35.4297 17.7188 35.3555 17.3672 35.3008 16.9453C35.2539 16.5156 35.2305 16.1094 35.2305 15.7266ZM35.5586 10.6172L35.582 11.6953H32.8281C32.1094 11.6953 31.4648 11.7617 30.8945 11.8945C30.332 12.0195 29.8555 12.207 29.4648 12.457C29.0742 12.6992 28.7734 12.9922 28.5625 13.3359C28.3594 13.6797 28.2578 14.0703 28.2578 14.5078C28.2578 14.9609 28.3711 15.375 28.5977 15.75C28.832 16.125 29.1602 16.4258 29.582 16.6523C30.0117 16.8711 30.5195 16.9805 31.1055 16.9805C31.8867 16.9805 32.5742 16.8359 33.168 16.5469C33.7695 16.2578 34.2656 15.8789 34.6562 15.4102C35.0469 14.9414 35.3086 14.4297 35.4414 13.875L36.0508 14.6836C35.9492 15.0742 35.7617 15.4766 35.4883 15.8906C35.2227 16.2969 34.875 16.6797 34.4453 17.0391C34.0156 17.3906 33.5078 17.6797 32.9219 17.9062C32.3438 18.125 31.6875 18.2344 30.9531 18.2344C30.125 18.2344 29.4023 18.0781 28.7852 17.7656C28.1758 17.4531 27.6992 17.0273 27.3555 16.4883C27.0195 15.9414 26.8516 15.3242 26.8516 14.6367C26.8516 14.0117 26.9844 13.4531 27.25 12.9609C27.5156 12.4609 27.8984 12.0391 28.3984 11.6953C28.9062 11.3438 29.5156 11.0781 30.2266 10.8984C30.9453 10.7109 31.75 10.6172 32.6406 10.6172H35.5586ZM48.7305 5.32031H50.0312V17.7773C50.0312 18.8789 49.8203 19.8242 49.3984 20.6133C48.9844 21.4023 48.3945 22.0078 47.6289 22.4297C46.8711 22.8516 45.9766 23.0625 44.9453 23.0625C44.4219 23.0625 43.8828 22.9805 43.3281 22.8164C42.7812 22.6602 42.2617 22.418 41.7695 22.0898C41.2852 21.7695 40.8711 21.3711 40.5273 20.8945L41.3125 20.0391C41.8281 20.6641 42.3789 21.1211 42.9648 21.4102C43.5508 21.707 44.1836 21.8555 44.8633 21.8555C45.668 21.8555 46.3477 21.6953 46.9023 21.375C47.4648 21.0547 47.8906 20.5938 48.1797 19.9922C48.4766 19.3906 48.625 18.668 48.625 17.8242V8.10938L48.7305 5.32031ZM39.8242 11.7891V11.543C39.8242 10.5586 39.9336 9.67188 40.1523 8.88281C40.3789 8.08594 40.7031 7.40625 41.125 6.84375C41.5469 6.27344 42.0586 5.83984 42.6602 5.54297C43.2695 5.23828 43.957 5.08594 44.7227 5.08594C45.457 5.08594 46.1094 5.20703 46.6797 5.44922C47.25 5.69141 47.7422 6.03906 48.1562 6.49219C48.5703 6.94531 48.9023 7.48438 49.1523 8.10938C49.4102 8.73438 49.5977 9.42969 49.7148 10.1953V13.3242C49.6211 14.043 49.4492 14.7031 49.1992 15.3047C48.9492 15.8984 48.6172 16.418 48.2031 16.8633C47.7891 17.3008 47.2891 17.6406 46.7031 17.8828C46.125 18.1172 45.457 18.2344 44.6992 18.2344C43.9414 18.2344 43.2617 18.0781 42.6602 17.7656C42.0586 17.4531 41.5469 17.0117 41.125 16.4414C40.7031 15.8633 40.3789 15.1797 40.1523 14.3906C39.9336 13.6016 39.8242 12.7344 39.8242 11.7891ZM41.2305 11.543V11.7891C41.2305 12.5312 41.3047 13.2188 41.4531 13.8516C41.6016 14.4844 41.8281 15.0352 42.1328 15.5039C42.4375 15.9727 42.8242 16.3398 43.293 16.6055C43.7617 16.8711 44.3125 17.0039 44.9453 17.0039C45.75 17.0039 46.4258 16.8516 46.9727 16.5469C47.5195 16.2344 47.9531 15.8242 48.2734 15.3164C48.5938 14.8008 48.8281 14.2383 48.9766 13.6289V9.98438C48.8906 9.57031 48.7578 9.14844 48.5781 8.71875C48.4062 8.28906 48.1641 7.89453 47.8516 7.53516C47.5469 7.16797 47.1562 6.875 46.6797 6.65625C46.2109 6.42969 45.6406 6.31641 44.9688 6.31641C44.3281 6.31641 43.7695 6.44922 43.293 6.71484C42.8242 6.98047 42.4375 7.35156 42.1328 7.82812C41.8281 8.29688 41.6016 8.84766 41.4531 9.48047C41.3047 10.1133 41.2305 10.8008 41.2305 11.543ZM58.5977 18.2344C57.7695 18.2344 57.0078 18.082 56.3125 17.7773C55.625 17.4727 55.0234 17.043 54.5078 16.4883C54 15.9336 53.6055 15.2773 53.3242 14.5195C53.0508 13.7539 52.9141 12.918 52.9141 12.0117V11.5078C52.9141 10.5312 53.0586 9.64844 53.3477 8.85938C53.6367 8.07031 54.0352 7.39453 54.543 6.83203C55.0508 6.26953 55.6289 5.83984 56.2773 5.54297C56.9336 5.23828 57.6211 5.08594 58.3398 5.08594C59.1445 5.08594 59.8594 5.23047 60.4844 5.51953C61.1094 5.80078 61.6328 6.20312 62.0547 6.72656C62.4844 7.24219 62.8086 7.85547 63.0273 8.56641C63.2461 9.26953 63.3555 10.0469 63.3555 10.8984V11.7539H53.7578V10.5586H61.9609V10.3945C61.9453 9.68359 61.8008 9.01953 61.5273 8.40234C61.2617 7.77734 60.8633 7.26953 60.332 6.87891C59.8008 6.48828 59.1367 6.29297 58.3398 6.29297C57.7461 6.29297 57.1992 6.41797 56.6992 6.66797C56.207 6.91797 55.7812 7.27734 55.4219 7.74609C55.0703 8.20703 54.7969 8.75781 54.6016 9.39844C54.4141 10.0312 54.3203 10.7344 54.3203 11.5078V12.0117C54.3203 12.7148 54.4219 13.3711 54.625 13.9805C54.8359 14.582 55.1328 15.1133 55.5156 15.5742C55.9062 16.0352 56.3672 16.3945 56.8984 16.6523C57.4297 16.9102 58.0156 17.0391 58.6562 17.0391C59.4062 17.0391 60.0703 16.9023 60.6484 16.6289C61.2266 16.3477 61.7461 15.9062 62.207 15.3047L63.0859 15.9844C62.8125 16.3906 62.4688 16.7656 62.0547 17.1094C61.6484 17.4531 61.1602 17.7266 60.5898 17.9297C60.0195 18.1328 59.3555 18.2344 58.5977 18.2344ZM73.7148 14.7656C73.7148 14.4219 73.6289 14.082 73.457 13.7461C73.2852 13.4102 72.9531 13.1016 72.4609 12.8203C71.9766 12.5391 71.2617 12.3008 70.3164 12.1055C69.6133 11.9492 68.9844 11.7734 68.4297 11.5781C67.8828 11.3828 67.4219 11.1484 67.0469 10.875C66.6719 10.6016 66.3867 10.2734 66.1914 9.89062C65.9961 9.50781 65.8984 9.05469 65.8984 8.53125C65.8984 8.0625 66 7.62109 66.2031 7.20703C66.4141 6.78516 66.7109 6.41797 67.0938 6.10547C67.4844 5.78516 67.9531 5.53516 68.5 5.35547C69.0547 5.17578 69.6758 5.08594 70.3633 5.08594C71.3398 5.08594 72.1758 5.25391 72.8711 5.58984C73.5742 5.91797 74.1094 6.36719 74.4766 6.9375C74.8516 7.50781 75.0391 8.15234 75.0391 8.87109H73.6445C73.6445 8.43359 73.5156 8.01953 73.2578 7.62891C73.0078 7.23828 72.6367 6.91797 72.1445 6.66797C71.6602 6.41797 71.0664 6.29297 70.3633 6.29297C69.6367 6.29297 69.0469 6.40234 68.5938 6.62109C68.1406 6.83984 67.8086 7.11719 67.5977 7.45312C67.3945 7.78906 67.293 8.13672 67.293 8.49609C67.293 8.77734 67.3359 9.03516 67.4219 9.26953C67.5156 9.49609 67.6797 9.70703 67.9141 9.90234C68.1562 10.0977 68.5 10.2812 68.9453 10.4531C69.3906 10.625 69.9688 10.793 70.6797 10.957C71.7031 11.1836 72.5391 11.4609 73.1875 11.7891C73.8438 12.1094 74.3281 12.5078 74.6406 12.9844C74.9531 13.4531 75.1094 14.0234 75.1094 14.6953C75.1094 15.2188 75 15.6992 74.7812 16.1367C74.5625 16.5664 74.2461 16.9375 73.832 17.25C73.4258 17.5625 72.9336 17.8047 72.3555 17.9766C71.7852 18.1484 71.1445 18.2344 70.4336 18.2344C69.3633 18.2344 68.457 18.0586 67.7148 17.707C66.9805 17.3477 66.4219 16.8789 66.0391 16.3008C65.6641 15.7148 65.4766 15.0938 65.4766 14.4375H66.8711C66.918 15.0938 67.125 15.6133 67.4922 15.9961C67.8594 16.3711 68.3086 16.6367 68.8398 16.793C69.3789 16.9492 69.9102 17.0273 70.4336 17.0273C71.1523 17.0273 71.7539 16.9219 72.2383 16.7109C72.7227 16.5 73.0898 16.2227 73.3398 15.8789C73.5898 15.5352 73.7148 15.1641 73.7148 14.7656Z" fill="#00877F"/>
</svg>
