<svg width="28" height="28" viewBox="0 0 28 28" fill="none" xmlns="http://www.w3.org/2000/svg">
<path fill-rule="evenodd" clip-rule="evenodd" d="M13.6304 25.8978C20.4054 25.8978 25.8978 20.4054 25.8978 13.6304C25.8978 6.85543 20.4054 1.36304 13.6304 1.36304C6.85543 1.36304 1.36304 6.85543 1.36304 13.6304C1.36304 20.4054 6.85543 25.8978 13.6304 25.8978ZM13.6304 27.2609C21.1585 27.2609 27.2609 21.1585 27.2609 13.6304C27.2609 6.10235 21.1585 0 13.6304 0C6.10235 0 0 6.10235 0 13.6304C0 21.1585 6.10235 27.2609 13.6304 27.2609Z" fill="#00877F"/>
<path d="M5.45215 21.5565C5.45215 20.8525 5.97828 20.2575 6.67889 20.1799C11.9368 19.5978 15.3478 19.6503 20.5942 20.1928C20.8562 20.2203 21.1045 20.3235 21.3088 20.4898C21.5131 20.6561 21.6645 20.8783 21.7446 21.1293C21.8247 21.3803 21.8299 21.6491 21.7598 21.903C21.6896 22.1569 21.5469 22.3849 21.3493 22.559C15.1577 27.956 11.6192 27.8817 5.88832 22.5645C5.6089 22.3055 5.45215 21.9375 5.45215 21.5572V21.5565Z" fill="#00877F"/>
<path fill-rule="evenodd" clip-rule="evenodd" d="M20.5241 20.8703C15.3193 20.3319 11.9573 20.2814 6.75324 20.8573C6.58194 20.8773 6.42401 20.9597 6.30971 21.0889C6.1954 21.218 6.13275 21.3848 6.13374 21.5572C6.13374 21.7522 6.21484 21.9369 6.35182 22.065C9.19241 24.6997 11.3447 25.8904 13.4485 25.8979C15.5599 25.9054 17.828 24.7243 20.9016 22.0459C20.9993 21.959 21.0696 21.8456 21.104 21.7195C21.1384 21.5933 21.1354 21.46 21.0954 21.3355C21.0554 21.211 20.9801 21.1009 20.8787 21.0184C20.7773 20.9359 20.6541 20.8847 20.5241 20.871V20.8703ZM6.60399 19.5025C11.9171 18.9143 15.3779 18.9675 20.6651 19.5147C21.0593 19.5559 21.4328 19.711 21.7402 19.9612C22.0475 20.2114 22.2751 20.5458 22.3953 20.9234C22.5155 21.3009 22.523 21.7054 22.4169 22.0872C22.3108 22.469 22.0957 22.8115 21.7978 23.073C18.6799 25.7909 16.0833 27.2711 13.4444 27.2609C10.7981 27.2514 8.31597 25.7459 5.42564 23.0641C5.21869 22.8713 5.05373 22.638 4.94104 22.3786C4.82835 22.1192 4.77036 21.8394 4.77069 21.5566C4.7697 21.0484 4.95621 20.5578 5.29449 20.1787C5.63277 19.7995 6.09904 19.5585 6.60399 19.5018V19.5025Z" fill="#00877F"/>
<path d="M19.0826 10.9043C19.0826 12.3503 18.5082 13.7371 17.4857 14.7596C16.4632 15.7821 15.0765 16.3565 13.6305 16.3565C12.1845 16.3565 10.7977 15.7821 9.77519 14.7596C8.75271 13.7371 8.17828 12.3503 8.17828 10.9043C8.17828 9.45832 8.75271 8.07153 9.77519 7.04905C10.7977 6.02657 12.1845 5.45215 13.6305 5.45215C15.0765 5.45215 16.4632 6.02657 17.4857 7.04905C18.5082 8.07153 19.0826 9.45832 19.0826 10.9043Z" fill="#00877F"/>
<path fill-rule="evenodd" clip-rule="evenodd" d="M13.6305 14.9935C14.715 14.9935 15.755 14.5626 16.5219 13.7958C17.2888 13.0289 17.7196 11.9888 17.7196 10.9043C17.7196 9.81982 17.2888 8.77973 16.5219 8.01287C15.755 7.24601 14.715 6.81519 13.6305 6.81519C12.546 6.81519 11.5059 7.24601 10.739 8.01287C9.97214 8.77973 9.54133 9.81982 9.54133 10.9043C9.54133 11.9888 9.97214 13.0289 10.739 13.7958C11.5059 14.5626 12.546 14.9935 13.6305 14.9935ZM13.6305 16.3565C15.0765 16.3565 16.4632 15.7821 17.4857 14.7596C18.5082 13.7371 19.0826 12.3503 19.0826 10.9043C19.0826 9.45832 18.5082 8.07153 17.4857 7.04905C16.4632 6.02657 15.0765 5.45215 13.6305 5.45215C12.1845 5.45215 10.7977 6.02657 9.77519 7.04905C8.75271 8.07153 8.17828 9.45832 8.17828 10.9043C8.17828 12.3503 8.75271 13.7371 9.77519 14.7596C10.7977 15.7821 12.1845 16.3565 13.6305 16.3565Z" fill="#00877F"/>
</svg>
