<svg width="100" height="30" viewBox="0 0 100 30" fill="none" xmlns="http://www.w3.org/2000/svg">
<rect width="100" height="30" rx="10" fill="white" fill-opacity="0.5"/>
<rect x="0.5" y="0.5" width="99" height="29" rx="9.5" stroke="#00877F" stroke-opacity="0.38"/>
<path d="M30.3057 17.7656C30.3057 17.4668 30.2588 17.2031 30.165 16.9746C30.0771 16.7402 29.9189 16.5293 29.6904 16.3418C29.4678 16.1543 29.1572 15.9756 28.7588 15.8057C28.3662 15.6357 27.8682 15.4629 27.2646 15.2871C26.6318 15.0996 26.0605 14.8916 25.5508 14.6631C25.041 14.4287 24.6045 14.1621 24.2412 13.8633C23.8779 13.5645 23.5996 13.2217 23.4062 12.835C23.2129 12.4482 23.1162 12.0059 23.1162 11.5078C23.1162 11.0098 23.2188 10.5498 23.4238 10.1279C23.6289 9.70605 23.9219 9.33984 24.3027 9.0293C24.6895 8.71289 25.1494 8.4668 25.6826 8.29102C26.2158 8.11523 26.8105 8.02734 27.4668 8.02734C28.4277 8.02734 29.2422 8.21191 29.9102 8.58105C30.584 8.94434 31.0967 9.42188 31.4482 10.0137C31.7998 10.5996 31.9756 11.2266 31.9756 11.8945H30.2881C30.2881 11.4141 30.1855 10.9893 29.9805 10.6201C29.7754 10.2451 29.4648 9.95215 29.0488 9.74121C28.6328 9.52441 28.1055 9.41602 27.4668 9.41602C26.8633 9.41602 26.3652 9.50684 25.9727 9.68848C25.5801 9.87012 25.2871 10.1162 25.0938 10.4268C24.9062 10.7373 24.8125 11.0918 24.8125 11.4902C24.8125 11.7598 24.8682 12.0059 24.9795 12.2285C25.0967 12.4453 25.2754 12.6475 25.5156 12.835C25.7617 13.0225 26.0723 13.1953 26.4473 13.3535C26.8281 13.5117 27.2822 13.6641 27.8096 13.8105C28.5361 14.0156 29.1631 14.2441 29.6904 14.4961C30.2178 14.748 30.6514 15.0322 30.9912 15.3486C31.3369 15.6592 31.5918 16.0137 31.7559 16.4121C31.9258 16.8047 32.0107 17.25 32.0107 17.748C32.0107 18.2695 31.9053 18.7412 31.6943 19.1631C31.4834 19.585 31.1816 19.9453 30.7891 20.2441C30.3965 20.543 29.9248 20.7744 29.374 20.9385C28.8291 21.0967 28.2197 21.1758 27.5459 21.1758C26.9541 21.1758 26.3711 21.0938 25.7969 20.9297C25.2285 20.7656 24.71 20.5195 24.2412 20.1914C23.7783 19.8633 23.4062 19.459 23.125 18.9785C22.8496 18.4922 22.7119 17.9297 22.7119 17.291H24.3994C24.3994 17.7305 24.4844 18.1084 24.6543 18.4248C24.8242 18.7354 25.0557 18.9932 25.3486 19.1982C25.6475 19.4033 25.9844 19.5557 26.3594 19.6553C26.7402 19.749 27.1357 19.7959 27.5459 19.7959C28.1377 19.7959 28.6387 19.7139 29.0488 19.5498C29.459 19.3857 29.7695 19.1514 29.9805 18.8467C30.1973 18.542 30.3057 18.1816 30.3057 17.7656ZM37.873 21.1758C37.2109 21.1758 36.6104 21.0645 36.0713 20.8418C35.5381 20.6133 35.0781 20.2939 34.6914 19.8838C34.3105 19.4736 34.0176 18.9873 33.8125 18.4248C33.6074 17.8623 33.5049 17.2471 33.5049 16.5791V16.21C33.5049 15.4365 33.6191 14.748 33.8477 14.1445C34.0762 13.5352 34.3867 13.0195 34.7793 12.5977C35.1719 12.1758 35.6172 11.8564 36.1152 11.6396C36.6133 11.4229 37.1289 11.3145 37.6621 11.3145C38.3418 11.3145 38.9277 11.4316 39.4199 11.666C39.918 11.9004 40.3252 12.2285 40.6416 12.6504C40.958 13.0664 41.1924 13.5586 41.3447 14.127C41.4971 14.6895 41.5732 15.3047 41.5732 15.9727V16.7021H34.4717V15.375H39.9473V15.252C39.9238 14.8301 39.8359 14.4199 39.6836 14.0215C39.5371 13.623 39.3027 13.2949 38.9805 13.0371C38.6582 12.7793 38.2188 12.6504 37.6621 12.6504C37.293 12.6504 36.9531 12.7295 36.6426 12.8877C36.332 13.04 36.0654 13.2686 35.8428 13.5732C35.6201 13.8779 35.4473 14.25 35.3242 14.6895C35.2012 15.1289 35.1396 15.6357 35.1396 16.21V16.5791C35.1396 17.0303 35.2012 17.4551 35.3242 17.8535C35.4531 18.2461 35.6377 18.5918 35.8779 18.8906C36.124 19.1895 36.4199 19.4238 36.7656 19.5938C37.1172 19.7637 37.5156 19.8486 37.9609 19.8486C38.5352 19.8486 39.0215 19.7314 39.4199 19.4971C39.8184 19.2627 40.167 18.9492 40.4658 18.5566L41.4502 19.3389C41.2451 19.6494 40.9844 19.9453 40.668 20.2266C40.3516 20.5078 39.9619 20.7363 39.499 20.9121C39.042 21.0879 38.5 21.1758 37.873 21.1758ZM49.0791 19.374V14.4785C49.0791 14.1035 49.0029 13.7783 48.8506 13.5029C48.7041 13.2217 48.4814 13.0049 48.1826 12.8525C47.8838 12.7002 47.5146 12.624 47.0752 12.624C46.665 12.624 46.3047 12.6943 45.9941 12.835C45.6895 12.9756 45.4492 13.1602 45.2734 13.3887C45.1035 13.6172 45.0186 13.8633 45.0186 14.127H43.3926C43.3926 13.7871 43.4805 13.4502 43.6562 13.1162C43.832 12.7822 44.084 12.4805 44.4121 12.2109C44.7461 11.9355 45.1445 11.7188 45.6074 11.5605C46.0762 11.3965 46.5977 11.3145 47.1719 11.3145C47.8633 11.3145 48.4727 11.4316 49 11.666C49.5332 11.9004 49.9492 12.2549 50.248 12.7295C50.5527 13.1982 50.7051 13.7871 50.7051 14.4961V18.9258C50.7051 19.2422 50.7314 19.5791 50.7842 19.9365C50.8428 20.2939 50.9277 20.6016 51.0391 20.8594V21H49.3428C49.2607 20.8125 49.1963 20.5635 49.1494 20.2529C49.1025 19.9365 49.0791 19.6436 49.0791 19.374ZM49.3604 15.2344L49.3779 16.377H47.7344C47.2715 16.377 46.8584 16.415 46.4951 16.4912C46.1318 16.5615 45.8271 16.6699 45.5811 16.8164C45.335 16.9629 45.1475 17.1475 45.0186 17.3701C44.8896 17.5869 44.8252 17.8418 44.8252 18.1348C44.8252 18.4336 44.8926 18.7061 45.0273 18.9521C45.1621 19.1982 45.3643 19.3945 45.6338 19.541C45.9092 19.6816 46.2461 19.752 46.6445 19.752C47.1426 19.752 47.582 19.6465 47.9629 19.4355C48.3438 19.2246 48.6455 18.9668 48.8682 18.6621C49.0967 18.3574 49.2197 18.0615 49.2373 17.7744L49.9316 18.5566C49.8906 18.8027 49.7793 19.0752 49.5977 19.374C49.416 19.6729 49.1729 19.96 48.8682 20.2354C48.5693 20.5049 48.2119 20.7305 47.7959 20.9121C47.3857 21.0879 46.9229 21.1758 46.4072 21.1758C45.7627 21.1758 45.1973 21.0498 44.7109 20.7979C44.2305 20.5459 43.8555 20.209 43.5859 19.7871C43.3223 19.3594 43.1904 18.8818 43.1904 18.3545C43.1904 17.8447 43.29 17.3965 43.4893 17.0098C43.6885 16.6172 43.9756 16.292 44.3506 16.0342C44.7256 15.7705 45.1768 15.5713 45.7041 15.4365C46.2314 15.3018 46.8203 15.2344 47.4707 15.2344H49.3604ZM54.8887 12.9844V21H53.2627V11.4902H54.8447L54.8887 12.9844ZM57.8594 11.4375L57.8506 12.9492C57.7158 12.9199 57.5869 12.9023 57.4639 12.8965C57.3467 12.8848 57.2119 12.8789 57.0596 12.8789C56.6846 12.8789 56.3535 12.9375 56.0664 13.0547C55.7793 13.1719 55.5361 13.3359 55.3369 13.5469C55.1377 13.7578 54.9795 14.0098 54.8623 14.3027C54.751 14.5898 54.6777 14.9062 54.6426 15.252L54.1855 15.5156C54.1855 14.9414 54.2412 14.4023 54.3525 13.8984C54.4697 13.3945 54.6484 12.9492 54.8887 12.5625C55.1289 12.1699 55.4336 11.8652 55.8027 11.6484C56.1777 11.4258 56.623 11.3145 57.1387 11.3145C57.2559 11.3145 57.3906 11.3291 57.543 11.3584C57.6953 11.3818 57.8008 11.4082 57.8594 11.4375ZM62.9922 19.8398C63.3789 19.8398 63.7363 19.7607 64.0645 19.6025C64.3926 19.4443 64.6621 19.2275 64.873 18.9521C65.084 18.6709 65.2041 18.3516 65.2334 17.9941H66.7803C66.751 18.5566 66.5605 19.0811 66.209 19.5674C65.8633 20.0479 65.4092 20.4375 64.8467 20.7363C64.2842 21.0293 63.666 21.1758 62.9922 21.1758C62.2773 21.1758 61.6533 21.0498 61.1201 20.7979C60.5928 20.5459 60.1533 20.2002 59.8018 19.7607C59.4561 19.3213 59.1953 18.8174 59.0195 18.249C58.8496 17.6748 58.7646 17.0684 58.7646 16.4297V16.0605C58.7646 15.4219 58.8496 14.8184 59.0195 14.25C59.1953 13.6758 59.4561 13.1689 59.8018 12.7295C60.1533 12.29 60.5928 11.9443 61.1201 11.6924C61.6533 11.4404 62.2773 11.3145 62.9922 11.3145C63.7363 11.3145 64.3867 11.4668 64.9434 11.7715C65.5 12.0703 65.9365 12.4805 66.2529 13.002C66.5752 13.5176 66.751 14.1035 66.7803 14.7598H65.2334C65.2041 14.3672 65.0928 14.0127 64.8994 13.6963C64.7119 13.3799 64.4541 13.1279 64.126 12.9404C63.8037 12.7471 63.4258 12.6504 62.9922 12.6504C62.4941 12.6504 62.0752 12.75 61.7354 12.9492C61.4014 13.1426 61.1348 13.4062 60.9355 13.7402C60.7422 14.0684 60.6016 14.4346 60.5137 14.8389C60.4316 15.2373 60.3906 15.6445 60.3906 16.0605V16.4297C60.3906 16.8457 60.4316 17.2559 60.5137 17.6602C60.5957 18.0645 60.7334 18.4307 60.9268 18.7588C61.126 19.0869 61.3926 19.3506 61.7266 19.5498C62.0664 19.7432 62.4883 19.8398 62.9922 19.8398ZM70.2344 7.5V21H68.6084V7.5H70.2344ZM69.8477 15.8848L69.1709 15.8584C69.1768 15.208 69.2734 14.6074 69.4609 14.0566C69.6484 13.5 69.9121 13.0166 70.252 12.6064C70.5918 12.1963 70.9961 11.8799 71.4648 11.6572C71.9395 11.4287 72.4639 11.3145 73.0381 11.3145C73.5068 11.3145 73.9287 11.3789 74.3037 11.5078C74.6787 11.6309 74.998 11.8301 75.2617 12.1055C75.5312 12.3809 75.7363 12.7383 75.877 13.1777C76.0176 13.6113 76.0879 14.1416 76.0879 14.7686V21H74.4531V14.751C74.4531 14.2529 74.3799 13.8545 74.2334 13.5557C74.0869 13.251 73.873 13.0312 73.5918 12.8965C73.3105 12.7559 72.9648 12.6855 72.5547 12.6855C72.1504 12.6855 71.7812 12.7705 71.4473 12.9404C71.1191 13.1104 70.835 13.3447 70.5947 13.6436C70.3604 13.9424 70.1758 14.2852 70.041 14.6719C69.9121 15.0527 69.8477 15.457 69.8477 15.8848Z" fill="#00877F"/>
</svg>
