<svg width="57" height="19" viewBox="0 0 57 19" fill="none" xmlns="http://www.w3.org/2000/svg">
<path d="M10.8242 13.8047C10.8242 13.3359 10.7461 12.918 10.5898 12.5508C10.4336 12.1836 10.1758 11.8555 9.81641 11.5664C9.46484 11.2695 8.98828 10.9961 8.38672 10.7461C7.79297 10.4883 7.05078 10.2344 6.16016 9.98438C5.30859 9.74219 4.53906 9.47656 3.85156 9.1875C3.16406 8.89844 2.57422 8.56641 2.08203 8.19141C1.59766 7.81641 1.22656 7.37891 0.96875 6.87891C0.710938 6.37109 0.582031 5.78125 0.582031 5.10938C0.582031 4.45312 0.722656 3.85547 1.00391 3.31641C1.28516 2.77734 1.67969 2.3125 2.1875 1.92188C2.70312 1.53125 3.30859 1.23047 4.00391 1.01953C4.70703 0.808594 5.47656 0.703125 6.3125 0.703125C7.50781 0.703125 8.53906 0.929687 9.40625 1.38281C10.2812 1.83594 10.957 2.44922 11.4336 3.22266C11.918 3.98828 12.1602 4.84766 12.1602 5.80078H10.7188C10.7188 5.05859 10.543 4.39844 10.1914 3.82031C9.84766 3.23438 9.34766 2.77734 8.69141 2.44922C8.04297 2.11328 7.25 1.94531 6.3125 1.94531C5.375 1.94531 4.58594 2.08984 3.94531 2.37891C3.3125 2.66016 2.83203 3.03906 2.50391 3.51562C2.18359 3.98438 2.02344 4.50781 2.02344 5.08594C2.02344 5.49219 2.10156 5.86719 2.25781 6.21094C2.41406 6.54688 2.66797 6.86328 3.01953 7.16016C3.37891 7.44922 3.85156 7.72266 4.4375 7.98047C5.02344 8.23047 5.74609 8.46875 6.60547 8.69531C7.51172 8.94531 8.31641 9.22266 9.01953 9.52734C9.72266 9.83203 10.3164 10.1836 10.8008 10.582C11.2852 10.9727 11.6523 11.4297 11.9023 11.9531C12.1523 12.4766 12.2773 13.0859 12.2773 13.7812C12.2773 14.4766 12.1289 15.1016 11.832 15.6562C11.543 16.2031 11.1328 16.668 10.6016 17.0508C10.0781 17.4336 9.45703 17.7266 8.73828 17.9297C8.02734 18.1328 7.25 18.2344 6.40625 18.2344C5.64844 18.2344 4.89453 18.1367 4.14453 17.9414C3.39453 17.7461 2.70703 17.4453 2.08203 17.0391C1.46484 16.625 0.96875 16.0938 0.59375 15.4453C0.226562 14.7969 0.0429688 14.0234 0.0429688 13.125H1.47266C1.47266 13.8438 1.61719 14.4492 1.90625 14.9414C2.19531 15.4336 2.57812 15.832 3.05469 16.1367C3.53906 16.4414 4.07031 16.6641 4.64844 16.8047C5.23438 16.9375 5.82031 17.0039 6.40625 17.0039C7.30469 17.0039 8.08203 16.8711 8.73828 16.6055C9.40234 16.3398 9.91406 15.9688 10.2734 15.4922C10.6406 15.0078 10.8242 14.4453 10.8242 13.8047ZM16.3906 7.94531V18H14.9844V5.32031H16.332L16.3906 7.94531ZM16.1328 10.875L15.4531 10.5234C15.5 9.77344 15.6406 9.07031 15.875 8.41406C16.1172 7.75781 16.4531 7.17969 16.8828 6.67969C17.3125 6.17969 17.8281 5.78906 18.4297 5.50781C19.0312 5.22656 19.7148 5.08594 20.4805 5.08594C21.0977 5.08594 21.6562 5.17188 22.1562 5.34375C22.6641 5.50781 23.0938 5.76953 23.4453 6.12891C23.8047 6.48047 24.082 6.94141 24.2773 7.51172C24.4727 8.08203 24.5703 8.76562 24.5703 9.5625V18H23.1758V9.60938C23.1758 8.76562 23.043 8.10547 22.7773 7.62891C22.5195 7.15234 22.1562 6.8125 21.6875 6.60938C21.2266 6.40625 20.6914 6.30469 20.082 6.30469C19.3633 6.30469 18.7539 6.45312 18.2539 6.75C17.7617 7.03906 17.3594 7.41797 17.0469 7.88672C16.7422 8.34766 16.5156 8.84375 16.3672 9.375C16.2188 9.89844 16.1406 10.3984 16.1328 10.875ZM24.5586 9.77344L23.6211 9.79688C23.6602 9.17969 23.8008 8.58984 24.043 8.02734C24.293 7.46484 24.6328 6.96484 25.0625 6.52734C25.4922 6.08203 26.0039 5.73047 26.5977 5.47266C27.1992 5.21484 27.875 5.08594 28.625 5.08594C29.2812 5.08594 29.8672 5.17578 30.3828 5.35547C30.8984 5.52734 31.332 5.80469 31.6836 6.1875C32.043 6.5625 32.3164 7.04297 32.5039 7.62891C32.6914 8.21484 32.7852 8.91797 32.7852 9.73828V18H31.3789V9.72656C31.3789 8.82812 31.2461 8.13281 30.9805 7.64062C30.7227 7.14062 30.3633 6.79297 29.9023 6.59766C29.4414 6.40234 28.9023 6.30469 28.2852 6.30469C27.6758 6.3125 27.1406 6.42578 26.6797 6.64453C26.2188 6.85547 25.832 7.13672 25.5195 7.48828C25.2148 7.83203 24.9805 8.20312 24.8164 8.60156C24.6602 9 24.5742 9.39062 24.5586 9.77344ZM44.0586 15.7266V9.1875C44.0586 8.58594 43.9336 8.06641 43.6836 7.62891C43.4336 7.19141 43.0664 6.85547 42.582 6.62109C42.0977 6.38672 41.5 6.26953 40.7891 6.26953C40.1328 6.26953 39.5469 6.38672 39.0312 6.62109C38.5234 6.84766 38.1211 7.15625 37.8242 7.54688C37.5352 7.92969 37.3906 8.35547 37.3906 8.82422L35.9844 8.8125C35.9844 8.33594 36.1016 7.875 36.3359 7.42969C36.5703 6.98438 36.9023 6.58594 37.332 6.23438C37.7617 5.88281 38.2734 5.60547 38.8672 5.40234C39.4688 5.19141 40.1289 5.08594 40.8477 5.08594C41.7539 5.08594 42.5508 5.23828 43.2383 5.54297C43.9336 5.84766 44.4766 6.30469 44.8672 6.91406C45.2578 7.52344 45.4531 8.28906 45.4531 9.21094V15.3398C45.4531 15.7773 45.4844 16.2305 45.5469 16.6992C45.6172 17.168 45.7148 17.5547 45.8398 17.8594V18H44.3516C44.2578 17.7188 44.1836 17.3672 44.1289 16.9453C44.082 16.5156 44.0586 16.1094 44.0586 15.7266ZM44.3867 10.6172L44.4102 11.6953H41.6562C40.9375 11.6953 40.293 11.7617 39.7227 11.8945C39.1602 12.0195 38.6836 12.207 38.293 12.457C37.9023 12.6992 37.6016 12.9922 37.3906 13.3359C37.1875 13.6797 37.0859 14.0703 37.0859 14.5078C37.0859 14.9609 37.1992 15.375 37.4258 15.75C37.6602 16.125 37.9883 16.4258 38.4102 16.6523C38.8398 16.8711 39.3477 16.9805 39.9336 16.9805C40.7148 16.9805 41.4023 16.8359 41.9961 16.5469C42.5977 16.2578 43.0938 15.8789 43.4844 15.4102C43.875 14.9414 44.1367 14.4297 44.2695 13.875L44.8789 14.6836C44.7773 15.0742 44.5898 15.4766 44.3164 15.8906C44.0508 16.2969 43.7031 16.6797 43.2734 17.0391C42.8438 17.3906 42.3359 17.6797 41.75 17.9062C41.1719 18.125 40.5156 18.2344 39.7812 18.2344C38.9531 18.2344 38.2305 18.0781 37.6133 17.7656C37.0039 17.4531 36.5273 17.0273 36.1836 16.4883C35.8477 15.9414 35.6797 15.3242 35.6797 14.6367C35.6797 14.0117 35.8125 13.4531 36.0781 12.9609C36.3438 12.4609 36.7266 12.0391 37.2266 11.6953C37.7344 11.3438 38.3438 11.0781 39.0547 10.8984C39.7734 10.7109 40.5781 10.6172 41.4688 10.6172H44.3867ZM50.7734 5.32031V18H49.3789V5.32031H50.7734ZM49.1328 1.65234C49.1328 1.38672 49.2148 1.16406 49.3789 0.984375C49.5508 0.796875 49.7852 0.703125 50.082 0.703125C50.3789 0.703125 50.6133 0.796875 50.7852 0.984375C50.9648 1.16406 51.0547 1.38672 51.0547 1.65234C51.0547 1.91016 50.9648 2.13281 50.7852 2.32031C50.6133 2.5 50.3789 2.58984 50.082 2.58984C49.7852 2.58984 49.5508 2.5 49.3789 2.32031C49.2148 2.13281 49.1328 1.91016 49.1328 1.65234ZM56.1641 0V18H54.7695V0H56.1641Z" fill="#00877F"/>
</svg>
